<svg width="24" height="24" viewBox="0 0 24 24" fill="none" xmlns="http://www.w3.org/2000/svg">
<g clip-path="url(#clip0_2045_205)">
<path d="M8.36063 0.789433C5.96266 1.62131 3.89465 3.20024 2.46036 5.29431C1.02608 7.38838 0.301114 9.8872 0.391959 12.4237C0.482805 14.9603 1.38467 17.4008 2.96509 19.3869C4.5455 21.373 6.72117 22.8 9.1725 23.4582C11.1599 23.971 13.242 23.9935 15.24 23.5238C17.05 23.1173 18.7233 22.2476 20.0963 21.0001C21.5252 19.662 22.5623 17.9597 23.0963 16.0763C23.6766 14.0282 23.7799 11.8743 23.3981 9.78006H12.2381V14.4094H18.7013C18.5721 15.1478 18.2953 15.8525 17.8874 16.4814C17.4795 17.1102 16.949 17.6504 16.3275 18.0694C15.5383 18.5915 14.6486 18.9428 13.7156 19.1007C12.7799 19.2747 11.8201 19.2747 10.8844 19.1007C9.93598 18.9046 9.03881 18.5132 8.25 17.9513C6.98278 17.0543 6.03127 15.7799 5.53125 14.3101C5.02278 12.8127 5.02278 11.1893 5.53125 9.69193C5.88718 8.64234 6.47557 7.68669 7.2525 6.89631C8.14161 5.97521 9.26725 5.3168 10.5059 4.99333C11.7446 4.66985 13.0484 4.6938 14.2744 5.06256C15.2321 5.35654 16.1078 5.87019 16.8319 6.56256C17.5606 5.83756 18.2881 5.11068 19.0144 4.38193C19.3894 3.99006 19.7981 3.61693 20.1675 3.21568C19.0623 2.1872 17.765 1.38691 16.35 0.860683C13.7732 -0.0749616 10.9537 -0.100106 8.36063 0.789433Z" fill="white"/>
<path d="M8.36063 0.789367C10.9535 -0.100776 13.773 -0.0762934 16.35 0.858742C17.7653 1.38855 19.062 2.19269 20.1656 3.22499C19.7906 3.62624 19.395 4.00124 19.0125 4.39124C18.285 5.11749 17.5581 5.84124 16.8319 6.56249C16.1078 5.87012 15.2321 5.35648 14.2744 5.06249C13.0488 4.69244 11.745 4.66711 10.506 4.98926C9.26704 5.31141 8.14071 5.96861 7.25063 6.88874C6.47369 7.67912 5.8853 8.63477 5.52938 9.68437L1.6425 6.67499C3.03377 3.91604 5.44266 1.80566 8.36063 0.789367Z" fill="#E33629"/>
<path d="M0.611248 9.65605C0.820163 8.62067 1.16701 7.61798 1.6425 6.6748L5.52937 9.69168C5.0209 11.1891 5.0209 12.8124 5.52937 14.3098C4.23437 15.3098 2.93875 16.3148 1.6425 17.3248C0.452156 14.9554 0.0891221 12.2557 0.611248 9.65605Z" fill="#F8BD00"/>
<path d="M12.2381 9.77832H23.3981C23.7799 11.8726 23.6766 14.0264 23.0962 16.0746C22.5623 17.958 21.5251 19.6602 20.0962 20.9983C18.8419 20.0196 17.5819 19.0483 16.3275 18.0696C16.9494 17.6501 17.4802 17.1094 17.8881 16.4798C18.296 15.8503 18.5725 15.1448 18.7012 14.4058H12.2381C12.2362 12.8646 12.2381 11.3214 12.2381 9.77832Z" fill="#587DBD"/>
<path d="M1.64062 17.3251C2.93687 16.3251 4.2325 15.3201 5.5275 14.3101C6.02851 15.7804 6.98138 17.0549 8.25 17.9513C9.04127 18.5106 9.94037 18.8988 10.89 19.0913C11.8257 19.2653 12.7855 19.2653 13.7213 19.0913C14.6542 18.9334 15.5439 18.5821 16.3331 18.0601C17.5875 19.0388 18.8475 20.0101 20.1019 20.9888C18.7292 22.237 17.0558 23.1073 15.2456 23.5144C13.2476 23.9841 11.1655 23.9616 9.17813 23.4488C7.60632 23.0291 6.13814 22.2893 4.86563 21.2757C3.51874 20.2063 2.41867 18.8588 1.64062 17.3251Z" fill="#319F43"/>
</g>
<defs>
<clipPath id="clip0_2045_205">
<rect width="24" height="24" fill="white"/>
</clipPath>
</defs>
</svg>
