<svg width="84" height="35" viewBox="0 0 84 35" fill="none" xmlns="http://www.w3.org/2000/svg">
<g clip-path="url(#clip0_2045_172)">
<mask id="mask0_2045_172" style="mask-type:luminance" maskUnits="userSpaceOnUse" x="0" y="0" width="84" height="35">
<path d="M83.7437 0H0V35H83.7437V0Z" fill="white"/>
</mask>
<g mask="url(#mask0_2045_172)">
<path d="M63.9715 18.9756C63.7317 19.092 63.5034 19.2395 63.2964 19.4347C62.8533 19.8545 62.5112 20.4792 62.3901 21.4056L62.1387 21.1022L60.3394 18.9444L59.6464 18.1115L59.0212 17.3622L47.7432 3.82685L36.5181 16.3997L35.1206 17.9672L33.1805 20.1397C33.1061 19.1002 32.4875 18.2115 31.601 17.7508L33.5196 15.6028L34.6261 14.3616L46.736 0.791852C47.0072 0.491794 47.3959 0.314712 47.8011 0.329469C48.208 0.337667 48.59 0.518029 48.8497 0.82792L60.3377 14.6174L60.981 15.3913L61.3882 15.8767L62.1375 16.7752L63.9697 18.9772L63.9715 18.9756Z" fill="url(#paint0_linear_2045_172)"/>
<path d="M56.1188 18.4329V27.6936C56.1188 28.1528 55.745 28.5233 55.2819 28.5233H49.8852V21.1088C49.8852 20.9842 49.7843 20.8825 49.6569 20.8825H45.9207C45.795 20.8825 45.6925 20.9825 45.6925 21.1088V28.5233H39.5449C39.0819 28.5233 38.7081 28.1528 38.7081 27.6936V18.4476C38.7081 18.2476 38.7841 18.0525 38.9181 17.8984L39.5449 17.1966L47.0636 8.77204C47.4027 8.39163 48.0063 8.40146 48.3321 8.79503L55.3332 17.1966L55.922 17.9032C56.046 18.0541 56.1138 18.2394 56.1138 18.4313L56.1188 18.4329Z" fill="#8A38F5"/>
<path d="M83.7444 13.9795L78.6368 27.0081C78.2369 28.0296 77.2459 28.7019 76.1393 28.7019H75.2068C74.102 28.7019 73.1098 28.0296 72.7093 27.0081L67.6024 13.9795H72.6697L75.6864 23.3878L78.7031 13.9795H83.7407H83.7444Z" fill="#8A38F5"/>
<path d="M9.17286 13.883V18.7905C9.17286 18.7905 4.65604 17.5673 4.63785 22.155C4.61965 26.7428 4.63785 28.5218 4.63785 28.5218H0.010209V22.2813C0.010209 22.2813 -0.674507 13.8813 9.17122 13.8813L9.17286 13.883Z" fill="#8A38F5"/>
<path d="M66.8756 13.8828V18.7919C66.8756 18.7919 65.2698 18.3574 63.9697 18.9772C63.7298 19.092 63.5016 19.2412 63.2952 19.4363C62.8515 19.8544 62.5094 20.4807 62.3889 21.4055C62.3572 21.6351 62.3408 21.8859 62.339 22.1565C62.339 22.3123 62.3371 22.4631 62.3371 22.6139C62.3225 26.8623 62.339 28.5233 62.339 28.5233H57.7114V22.2828C57.7114 22.2828 57.5426 20.2004 58.5862 18.1115C58.7119 17.8606 58.8542 17.6097 59.0179 17.3605C59.3586 16.8407 59.7903 16.3341 60.3311 15.8766C60.5313 15.7078 60.7479 15.5437 60.981 15.3896C62.3244 14.4944 64.2162 13.8828 66.8756 13.8828Z" fill="#8A38F5"/>
<path d="M16.8217 25.6802C14.4996 25.3276 13.8595 23.2289 13.8595 23.2289C23.0073 20.2447 21.4427 14.2633 21.4427 14.2633C20.7034 13.8895 15.6904 12.6859 12.5926 15.2176C9.49486 17.7492 9.40885 21.8352 10.163 24.1439C12.5926 31.4239 21.365 28.1298 21.365 28.1298V24.703C20.925 25.0358 19.1471 26.0311 16.8217 25.6802ZM15.2322 17.1163C16.2362 16.2964 17.8586 16.6867 18.0985 16.8064C18.0985 16.8064 18.7319 19.2265 14.445 20.007C14.2018 19.2593 14.2283 17.9361 15.2322 17.1163Z" fill="#8A38F5"/>
<path d="M36.5181 16.3995C36.0236 15.606 35.3802 14.914 34.626 14.3615C33.3955 13.4564 31.8722 12.9219 30.225 12.9219C26.3614 12.9219 23.1892 15.8585 22.8551 19.6034C22.8336 19.8199 22.8237 20.038 22.8237 20.261V33.7897C22.8237 33.7897 25.7131 33.9143 26.5533 30.6777V26.6294C27.6349 27.2442 28.8886 27.5951 30.2266 27.5951C34.3134 27.5951 37.6279 24.3109 37.6279 20.2593C37.6279 18.8427 37.2243 17.5211 36.5197 16.3995H36.5181ZM30.225 23.291C28.5876 23.291 27.2612 21.976 27.2612 20.3528C27.2612 18.7295 28.5876 17.4145 30.225 17.4145C30.7228 17.4145 31.1908 17.5358 31.6027 17.7507C32.4875 18.2114 33.106 19.1017 33.1821 20.1396C33.1888 20.2101 33.1904 20.2806 33.1904 20.3528C33.1904 21.976 31.864 23.291 30.2266 23.291H30.225Z" fill="#8A38F5"/>
<path d="M47.4956 15.0225H46.356V16.1522H47.4956V15.0225Z" fill="white"/>
<path d="M47.4956 16.4883H46.356V17.618H47.4956V16.4883Z" fill="white"/>
<path d="M48.9293 15.0225H47.7897V16.1522H48.9293V15.0225Z" fill="white"/>
<path d="M48.9293 16.4883H47.7897V17.618H48.9293V16.4883Z" fill="white"/>
<path d="M30.2015 30.8056V30.4829H32.4739V30.8056H31.5212V33.4868H31.1543V30.8056H30.2015ZM32.7569 33.4868V31.2338H33.0942V31.5741H33.1179C33.1593 31.4627 33.2342 31.3722 33.3428 31.3028C33.4512 31.2334 33.5736 31.1987 33.7097 31.1987C33.7353 31.1987 33.7674 31.1991 33.8059 31.2001C33.8443 31.2011 33.8734 31.2026 33.8932 31.2045V31.5566C33.8813 31.5536 33.8541 31.5492 33.8118 31.5434C33.7703 31.5365 33.7264 31.5331 33.6801 31.5331C33.5696 31.5331 33.471 31.556 33.3842 31.602C33.2984 31.647 33.2303 31.7095 33.18 31.7897C33.1307 31.869 33.1061 31.9594 33.1061 32.0611V33.4868H32.7569ZM35.7391 32.5657V31.2338H36.0883V33.4868H35.7391V33.1054H35.7155C35.6622 33.2198 35.5794 33.3171 35.4669 33.3973C35.3545 33.4765 35.2124 33.5161 35.0409 33.5161C34.8988 33.5161 34.7725 33.4852 34.6621 33.4237C34.5516 33.3611 34.4648 33.2672 34.4017 33.1421C34.3386 33.0159 34.307 32.8571 34.307 32.6654V31.2338H34.6562V32.6419C34.6562 32.8062 34.7025 32.9372 34.7952 33.035C34.8889 33.1328 35.0083 33.1817 35.1533 33.1817C35.2401 33.1817 35.3283 33.1597 35.4181 33.1156C35.5088 33.0716 35.5848 33.0042 35.646 32.9132C35.708 32.8223 35.7391 32.7064 35.7391 32.5657ZM37.7161 31.2338V31.5272H36.5384V31.2338H37.7161ZM36.8817 30.6941H37.2308V32.8414C37.2308 32.9392 37.2451 33.0125 37.2737 33.0614C37.3033 33.1093 37.3408 33.1416 37.3862 33.1582C37.4325 33.1739 37.4814 33.1817 37.5326 33.1817C37.5711 33.1817 37.6027 33.1797 37.6273 33.1758C37.652 33.1709 37.6717 33.167 37.6865 33.1641L37.7575 33.475C37.7338 33.4838 37.7008 33.4926 37.6584 33.5014C37.616 33.5112 37.5623 33.5161 37.4971 33.5161C37.3985 33.5161 37.3019 33.495 37.2071 33.453C37.1135 33.411 37.0355 33.3469 36.9734 33.2609C36.9122 33.1748 36.8817 33.0663 36.8817 32.9353V30.6941ZM38.6393 32.1315V33.4868H38.2901V30.4829H38.6393V31.5859H38.6689C38.7221 31.4695 38.802 31.3771 38.9086 31.3087C39.0161 31.2392 39.159 31.2045 39.3376 31.2045C39.4924 31.2045 39.628 31.2353 39.7444 31.2969C39.8608 31.3575 39.9511 31.451 40.0152 31.5771C40.0803 31.7022 40.1128 31.8616 40.1128 32.0552V33.4868H39.7637V32.0787C39.7637 31.8997 39.7169 31.7614 39.6231 31.6636C39.5304 31.5648 39.4017 31.5155 39.237 31.5155C39.1226 31.5155 39.02 31.5394 38.9293 31.5873C38.8395 31.6353 38.7685 31.7052 38.7162 31.7971C38.6649 31.889 38.6393 32.0005 38.6393 32.1315ZM41.0061 33.5102C40.9331 33.5102 40.8705 33.4843 40.8182 33.4324C40.7659 33.3807 40.7398 33.3186 40.7398 33.2462C40.7398 33.1739 40.7659 33.1118 40.8182 33.0599C40.8705 33.0081 40.9331 32.9822 41.0061 32.9822C41.0791 32.9822 41.1417 33.0081 41.194 33.0599C41.2463 33.1118 41.2724 33.1739 41.2724 33.2462C41.2724 33.2941 41.26 33.3381 41.2354 33.3782C41.2117 33.4183 41.1797 33.4505 41.1392 33.475C41.0997 33.4985 41.0554 33.5102 41.0061 33.5102ZM41.6382 30.8056V30.4829H43.9106V30.8056H42.9579V33.4868H42.5909V30.8056H41.6382ZM44.1936 33.4868V31.2338H44.5309V31.5741H44.5546C44.596 31.4627 44.671 31.3722 44.7794 31.3028C44.888 31.2334 45.0103 31.1987 45.1464 31.1987C45.172 31.1987 45.2041 31.1991 45.2425 31.2001C45.281 31.2011 45.3101 31.2026 45.3298 31.2045V31.5566C45.318 31.5536 45.2909 31.5492 45.2484 31.5434C45.207 31.5365 45.1632 31.5331 45.1168 31.5331C45.0063 31.5331 44.9077 31.556 44.8209 31.602C44.7351 31.647 44.667 31.7095 44.6167 31.7897C44.5674 31.869 44.5428 31.9594 44.5428 32.0611V33.4868H44.1936ZM47.1759 32.5657V31.2338H47.525V33.4868H47.1759V33.1054H47.1522C47.0989 33.2198 47.0161 33.3171 46.9036 33.3973C46.7912 33.4765 46.6492 33.5161 46.4775 33.5161C46.3355 33.5161 46.2093 33.4852 46.0988 33.4237C45.9883 33.3611 45.9015 33.2672 45.8384 33.1421C45.7753 33.0159 45.7437 32.8571 45.7437 32.6654V31.2338H46.0929V32.6419C46.0929 32.8062 46.1392 32.9372 46.232 33.035C46.3256 33.1328 46.445 33.1817 46.59 33.1817C46.6767 33.1817 46.7651 33.1597 46.8548 33.1156C46.9455 33.0716 47.0215 33.0042 47.0826 32.9132C47.1448 32.8223 47.1759 32.7064 47.1759 32.5657ZM49.7741 31.7384L49.4605 31.8264C49.4408 31.7746 49.4117 31.7242 49.3732 31.6753C49.3358 31.6255 49.2845 31.5844 49.2194 31.5522C49.1543 31.5199 49.0709 31.5038 48.9693 31.5038C48.8302 31.5038 48.7143 31.5355 48.6216 31.599C48.5299 31.6616 48.4841 31.7413 48.4841 31.8381C48.4841 31.9242 48.5156 31.9921 48.5787 32.042C48.6419 32.0919 48.7405 32.1335 48.8746 32.1667L49.212 32.2488C49.4151 32.2977 49.5665 32.3725 49.6662 32.4733C49.7658 32.573 49.8156 32.7015 49.8156 32.859C49.8156 32.9881 49.7781 33.1034 49.7032 33.2051C49.6292 33.3068 49.5256 33.387 49.3924 33.4457C49.2593 33.5043 49.1045 33.5337 48.9279 33.5337C48.6961 33.5337 48.5043 33.4838 48.3524 33.384C48.2005 33.2844 48.1043 33.1386 48.0639 32.947L48.3953 32.8648C48.4269 32.9861 48.4865 33.077 48.5743 33.1377C48.6631 33.1983 48.779 33.2286 48.922 33.2286C49.0847 33.2286 49.214 33.1944 49.3096 33.126C49.4063 33.0565 49.4546 32.9734 49.4546 32.8766C49.4546 32.7983 49.427 32.7329 49.3717 32.6801C49.3165 32.6262 49.2317 32.5862 49.1173 32.5598L48.7385 32.4718C48.5304 32.4229 48.3776 32.3471 48.2799 32.2444C48.1833 32.1408 48.1349 32.0112 48.1349 31.8558C48.1349 31.7286 48.1709 31.6162 48.2429 31.5184C48.3159 31.4206 48.4151 31.3438 48.5403 31.2882C48.6666 31.2324 48.8095 31.2045 48.9693 31.2045C49.1942 31.2045 49.3708 31.2534 49.499 31.3512C49.6282 31.449 49.7199 31.578 49.7741 31.7384ZM51.3295 31.2338V31.5272H50.1518V31.2338H51.3295ZM50.495 30.6941H50.8442V32.8414C50.8442 32.9392 50.8585 33.0125 50.8871 33.0614C50.9167 33.1093 50.9542 33.1416 50.9995 33.1582C51.0459 33.1739 51.0947 33.1817 51.146 33.1817C51.1845 33.1817 51.216 33.1797 51.2407 33.1758C51.2653 33.1709 51.2851 33.167 51.2999 33.1641L51.3709 33.475C51.3472 33.4838 51.3141 33.4926 51.2718 33.5014C51.2294 33.5112 51.1756 33.5161 51.1105 33.5161C51.0119 33.5161 50.9152 33.495 50.8205 33.453C50.7268 33.411 50.6489 33.3469 50.5868 33.2609C50.5256 33.1748 50.495 33.0663 50.495 32.9353V30.6941ZM52.1092 33.5102C52.0362 33.5102 51.9735 33.4843 51.9213 33.4324C51.869 33.3807 51.8429 33.3186 51.8429 33.2462C51.8429 33.1739 51.869 33.1118 51.9213 33.0599C51.9735 33.0081 52.0362 32.9822 52.1092 32.9822C52.1821 32.9822 52.2448 33.0081 52.2971 33.0599C52.3493 33.1118 52.3755 33.1739 52.3755 33.2462C52.3755 33.2941 52.3631 33.3381 52.3385 33.3782C52.3148 33.4183 52.2828 33.4505 52.2423 33.475C52.2028 33.4985 52.1585 33.5102 52.1092 33.5102ZM52.7412 30.8056V30.4829H55.0137V30.8056H54.0609V33.4868H53.694V30.8056H52.7412ZM55.2967 33.4868V31.2338H55.634V31.5741H55.6577C55.6991 31.4627 55.7741 31.3722 55.8825 31.3028C55.9911 31.2334 56.1133 31.1987 56.2495 31.1987C56.2751 31.1987 56.3072 31.1991 56.3456 31.2001C56.3841 31.2011 56.4132 31.2026 56.4329 31.2045V31.5566C56.421 31.5536 56.394 31.5492 56.3515 31.5434C56.3101 31.5365 56.2662 31.5331 56.2199 31.5331C56.1094 31.5331 56.0108 31.556 55.924 31.602C55.8382 31.647 55.7701 31.7095 55.7198 31.7897C55.6705 31.869 55.6458 31.9594 55.6458 32.0611V33.4868H55.2967ZM57.5155 33.5396C57.3715 33.5396 57.2408 33.5126 57.1235 33.4589C57.0061 33.4041 56.9129 33.3254 56.8438 33.2227C56.7748 33.1191 56.7402 32.9939 56.7402 32.8473C56.7402 32.7182 56.7659 32.6136 56.8172 32.5334C56.8685 32.4522 56.937 32.3887 57.0229 32.3427C57.1086 32.2968 57.2033 32.2625 57.3069 32.24C57.4115 32.2166 57.5165 32.198 57.6221 32.1843C57.7601 32.1667 57.8721 32.1535 57.9579 32.1447C58.0447 32.1349 58.1078 32.1188 58.1472 32.0963C58.1877 32.0738 58.2079 32.0347 58.2079 31.979V31.9672C58.2079 31.8225 58.1679 31.7101 58.0881 31.6299C58.0092 31.5497 57.8893 31.5096 57.7286 31.5096C57.5619 31.5096 57.4312 31.5458 57.3365 31.6181C57.2418 31.6905 57.1752 31.7678 57.1367 31.8499L56.8054 31.7325C56.8645 31.5957 56.9434 31.489 57.0421 31.4128C57.1417 31.3355 57.2502 31.2818 57.3676 31.2515C57.4859 31.2201 57.6023 31.2045 57.7167 31.2045C57.7897 31.2045 57.8736 31.2133 57.9682 31.2309C58.0639 31.2475 58.1561 31.2822 58.2449 31.335C58.3347 31.3878 58.4091 31.4676 58.4683 31.5741C58.5275 31.6807 58.5571 31.8235 58.5571 32.0024V33.4868H58.2079V33.1817H58.1902C58.1665 33.2305 58.127 33.2828 58.0718 33.3386C58.0166 33.3944 57.9431 33.4417 57.8514 33.4809C57.7596 33.52 57.6477 33.5396 57.5155 33.5396ZM57.5688 33.2286C57.7069 33.2286 57.8232 33.2017 57.9179 33.1479C58.0136 33.0942 58.0856 33.0247 58.1339 32.9397C58.1832 32.8546 58.2079 32.7651 58.2079 32.6713V32.3544C58.1931 32.372 58.1606 32.3882 58.1102 32.4028C58.0609 32.4165 58.0037 32.4287 57.9386 32.4395C57.8745 32.4493 57.8119 32.4581 57.7507 32.4659C57.6906 32.4727 57.6418 32.4786 57.6043 32.4835C57.5135 32.4952 57.4287 32.5143 57.3498 32.5407C57.2719 32.5661 57.2088 32.6048 57.1604 32.6566C57.1131 32.7074 57.0895 32.7769 57.0895 32.8648C57.0895 32.9851 57.1343 33.076 57.224 33.1377C57.3148 33.1983 57.4297 33.2286 57.5688 33.2286ZM59.5435 32.1315V33.4868H59.1943V31.2338H59.5317V31.5859H59.5612C59.6145 31.4715 59.6954 31.3796 59.8039 31.3101C59.9124 31.2398 60.0525 31.2045 60.2241 31.2045C60.3779 31.2045 60.5126 31.2358 60.628 31.2984C60.7433 31.36 60.8331 31.4539 60.897 31.58C60.9615 31.7052 60.9931 31.8636 60.9931 32.0552V33.4868H60.6442V32.0787C60.6442 31.9017 60.5979 31.7638 60.5051 31.6651C60.4124 31.5653 60.2852 31.5155 60.1234 31.5155C60.012 31.5155 59.9124 31.5394 59.8246 31.5873C59.7378 31.6353 59.6692 31.7052 59.6189 31.7971C59.5687 31.889 59.5435 32.0005 59.5435 32.1315ZM63.2411 31.7384L62.9276 31.8264C62.9075 31.7746 62.8789 31.7242 62.8399 31.6753C62.8028 31.6255 62.7517 31.5844 62.6865 31.5522C62.6214 31.5199 62.538 31.5038 62.4364 31.5038C62.297 31.5038 62.1813 31.5355 62.0888 31.599C61.9969 31.6616 61.9512 31.7413 61.9512 31.8381C61.9512 31.9242 61.9823 31.9921 62.0456 32.042C62.1089 32.0919 62.2075 32.1335 62.3414 32.1667L62.6786 32.2488C62.8819 32.2977 63.0335 32.3725 63.1333 32.4733C63.2325 32.573 63.2824 32.7015 63.2824 32.859C63.2824 32.9881 63.2453 33.1034 63.1698 33.2051C63.0962 33.3068 62.9927 33.387 62.8594 33.4457C62.7261 33.5043 62.5715 33.5337 62.395 33.5337C62.1631 33.5337 61.9713 33.4838 61.8191 33.384C61.6676 33.2844 61.5714 33.1386 61.5306 32.947L61.8624 32.8648C61.894 32.9861 61.9537 33.077 62.0413 33.1377C62.1302 33.1983 62.2458 33.2286 62.3889 33.2286C62.5514 33.2286 62.6811 33.1944 62.7766 33.126C62.8734 33.0565 62.9215 32.9734 62.9215 32.8766C62.9215 32.7983 62.8941 32.7329 62.8387 32.6801C62.7833 32.6262 62.6987 32.5862 62.5843 32.5598L62.2057 32.4718C61.9975 32.4229 61.8447 32.3471 61.7467 32.2444C61.6499 32.1408 61.6018 32.0112 61.6018 31.8558C61.6018 31.7286 61.6377 31.6162 61.7096 31.5184C61.7826 31.4206 61.8818 31.3438 62.0072 31.2882C62.1332 31.2324 62.2763 31.2045 62.4364 31.2045C62.661 31.2045 62.8375 31.2534 62.9659 31.3512C63.095 31.449 63.1869 31.578 63.2411 31.7384ZM63.8084 34.3316V31.2338H64.1456V31.5917H64.187C64.2125 31.5526 64.2478 31.5027 64.2935 31.4422C64.3397 31.3805 64.4055 31.3257 64.4913 31.2778C64.5784 31.229 64.6958 31.2045 64.8438 31.2045C65.0349 31.2045 65.2035 31.2519 65.3496 31.3468C65.4957 31.4417 65.6095 31.5761 65.6917 31.7502C65.7732 31.9242 65.814 32.1295 65.814 32.3662C65.814 32.6048 65.7732 32.8116 65.6917 32.9866C65.6095 33.1607 65.4963 33.2956 65.3514 33.3914C65.2059 33.4863 65.0391 33.5337 64.8498 33.5337C64.7038 33.5337 64.5869 33.5097 64.4992 33.4618C64.411 33.4129 64.3434 33.3577 64.2965 33.2961C64.2491 33.2335 64.2125 33.1817 64.187 33.1406H64.1571V34.3316H63.8084ZM64.1511 32.3603C64.1511 32.5304 64.1766 32.6805 64.2265 32.8106C64.2771 32.9397 64.3507 33.0409 64.4475 33.1142C64.5437 33.1865 64.6624 33.2227 64.8024 33.2227C64.9484 33.2227 65.0702 33.1846 65.1676 33.1083C65.2662 33.0311 65.3404 32.9274 65.3898 32.7974C65.4397 32.6664 65.4652 32.5206 65.4652 32.3603C65.4652 32.2019 65.4403 32.0591 65.391 31.932C65.3429 31.8039 65.2692 31.7027 65.1706 31.6284C65.0732 31.5531 64.9503 31.5155 64.8024 31.5155C64.6605 31.5155 64.5406 31.5511 64.4444 31.6225C64.3477 31.6929 64.2746 31.7917 64.2253 31.9188C64.176 32.0449 64.1511 32.1921 64.1511 32.3603ZM67.0156 33.5396C66.8713 33.5396 66.7411 33.5126 66.6236 33.4589C66.5061 33.4041 66.413 33.3254 66.3442 33.2227C66.2748 33.1191 66.2401 32.9939 66.2401 32.8473C66.2401 32.7182 66.2663 32.6136 66.3174 32.5334C66.3685 32.4522 66.4373 32.3887 66.5231 32.3427C66.609 32.2968 66.7033 32.2625 66.8068 32.24C66.9115 32.2166 67.0168 32.198 67.1221 32.1843C67.2603 32.1667 67.3723 32.1535 67.4581 32.1447C67.5445 32.1349 67.6078 32.1188 67.6474 32.0963C67.6876 32.0738 67.7083 32.0347 67.7083 31.979V31.9672C67.7083 31.8225 67.6681 31.7101 67.5884 31.6299C67.5092 31.5497 67.3893 31.5096 67.2286 31.5096C67.0618 31.5096 66.931 31.5458 66.8366 31.6181C66.7417 31.6905 66.6753 31.7678 66.637 31.8499L66.3052 31.7325C66.3649 31.5957 66.4434 31.489 66.542 31.4128C66.6418 31.3355 66.7502 31.2818 66.8677 31.2515C66.9857 31.2201 67.1026 31.2045 67.2171 31.2045C67.2895 31.2045 67.3735 31.2133 67.4684 31.2309C67.564 31.2475 67.6559 31.2822 67.7448 31.335C67.8349 31.3878 67.9091 31.4676 67.9682 31.5741C68.0278 31.6807 68.0571 31.8235 68.0571 32.0024V33.4868H67.7083V33.1817H67.69C67.6663 33.2305 67.6273 33.2828 67.5719 33.3386C67.5165 33.3944 67.4429 33.4417 67.3516 33.4809C67.2597 33.52 67.1477 33.5396 67.0156 33.5396ZM67.0691 33.2286C67.2067 33.2286 67.3236 33.2017 67.4179 33.1479C67.5135 33.0942 67.5859 33.0247 67.634 32.9397C67.6833 32.8546 67.7083 32.7651 67.7083 32.6713V32.3544C67.6931 32.372 67.6608 32.3882 67.6103 32.4028C67.561 32.4165 67.5037 32.4287 67.4386 32.4395C67.3747 32.4493 67.312 32.4581 67.2505 32.4659C67.1909 32.4727 67.1416 32.4786 67.1044 32.4835C67.0137 32.4952 66.9285 32.5143 66.85 32.5407C66.7721 32.5661 66.7088 32.6048 66.6607 32.6566C66.6132 32.7074 66.5895 32.7769 66.5895 32.8648C66.5895 32.9851 66.6345 33.076 66.724 33.1377C66.8147 33.1983 66.9297 33.2286 67.0691 33.2286ZM68.6944 33.4868V31.2338H69.0316V31.5741H69.0553C69.0967 31.4627 69.1716 31.3722 69.2805 31.3028C69.3889 31.2334 69.5112 31.1987 69.647 31.1987C69.6731 31.1987 69.7048 31.1991 69.7431 31.2001C69.7821 31.2011 69.8107 31.2026 69.8308 31.2045V31.5566C69.8186 31.5536 69.7918 31.5492 69.7492 31.5434C69.7078 31.5365 69.664 31.5331 69.6178 31.5331C69.507 31.5331 69.4084 31.556 69.3219 31.602C69.2361 31.647 69.1679 31.7095 69.1174 31.7897C69.0681 31.869 69.0438 31.9594 69.0438 32.0611V33.4868H68.6944ZM71.1279 33.5337C70.9094 33.5337 70.7201 33.4858 70.5612 33.39C70.4036 33.2931 70.2818 33.1582 70.196 32.9851C70.1114 32.8111 70.0688 32.6087 70.0688 32.3779C70.0688 32.1472 70.1114 31.9437 70.196 31.7678C70.2818 31.5908 70.4011 31.4529 70.5539 31.3541C70.7079 31.2544 70.8875 31.2045 71.0926 31.2045C71.2107 31.2045 71.3276 31.2241 71.4432 31.2632C71.5589 31.3023 71.6636 31.3659 71.7585 31.4539C71.8529 31.5409 71.9284 31.6563 71.985 31.8C72.041 31.9437 72.069 32.1207 72.069 32.331V32.4776H70.3171V32.1784H71.7141C71.7141 32.0513 71.6885 31.9379 71.6368 31.8381C71.5869 31.7384 71.5151 31.6597 71.4213 31.602C71.3282 31.5443 71.2186 31.5155 71.0926 31.5155C70.9538 31.5155 70.8333 31.5497 70.7317 31.6181C70.6312 31.6856 70.5539 31.7736 70.4991 31.8821C70.445 31.9907 70.4182 32.107 70.4182 32.2312V32.4307C70.4182 32.6008 70.4474 32.7451 70.5071 32.8634C70.5667 32.9807 70.6501 33.0702 70.7566 33.1318C70.8631 33.1924 70.9873 33.2227 71.1279 33.2227C71.2198 33.2227 71.3026 33.21 71.3769 33.1846C71.4518 33.1582 71.5163 33.1191 71.5704 33.0672C71.6246 33.0144 71.6666 32.949 71.6964 32.8707L72.0337 32.9646C71.9984 33.078 71.9387 33.1777 71.8547 33.2638C71.7707 33.3489 71.6672 33.4154 71.5437 33.4633C71.4207 33.5102 71.2819 33.5337 71.1279 33.5337ZM72.9491 32.1315V33.4868H72.6004V31.2338H72.9376V31.5859H72.9674C73.0204 31.4715 73.1013 31.3796 73.2097 31.3101C73.318 31.2398 73.4586 31.2045 73.6297 31.2045C73.7837 31.2045 73.9182 31.2358 74.0338 31.2984C74.1495 31.36 74.239 31.4539 74.3029 31.58C74.3674 31.7052 74.3991 31.8636 74.3991 32.0552V33.4868H74.0503V32.0787C74.0503 31.9017 74.004 31.7638 73.9109 31.6651C73.8184 31.5653 73.6911 31.5155 73.5292 31.5155C73.4178 31.5155 73.318 31.5394 73.2304 31.5873C73.1439 31.6353 73.0751 31.7052 73.0246 31.7971C72.9747 31.889 72.9491 32.0005 72.9491 32.1315ZM75.9604 33.5337C75.7473 33.5337 75.5641 33.4838 75.4101 33.384C75.2561 33.2844 75.138 33.147 75.0552 32.9719C74.9724 32.7969 74.9311 32.5969 74.9311 32.372C74.9311 32.1432 74.9731 31.9413 75.0583 31.7663C75.1441 31.5903 75.2634 31.4529 75.4162 31.3541C75.5702 31.2544 75.7491 31.2045 75.9543 31.2045C76.1144 31.2045 76.2586 31.2338 76.3864 31.2926C76.5149 31.3512 76.6196 31.4333 76.7018 31.5389C76.7833 31.6445 76.8344 31.7678 76.8539 31.9086H76.5051C76.4784 31.8058 76.4193 31.715 76.3274 31.6357C76.2367 31.5555 76.1144 31.5155 75.9604 31.5155C75.8246 31.5155 75.7053 31.5507 75.6024 31.6211C75.5008 31.6905 75.4217 31.7888 75.3644 31.9159C75.3078 32.042 75.2798 32.1902 75.2798 32.3603C75.2798 32.5343 75.3078 32.6859 75.3626 32.815C75.4192 32.9441 75.4977 33.0443 75.5994 33.1156C75.7023 33.187 75.8222 33.2227 75.9604 33.2227C76.0511 33.2227 76.1338 33.2071 76.2075 33.1758C76.2817 33.1445 76.3444 33.0995 76.3956 33.0409C76.4467 32.9822 76.4832 32.9118 76.5051 32.8297H76.8539C76.8344 32.9627 76.7857 33.0824 76.7078 33.189C76.6305 33.2946 76.5289 33.3787 76.4017 33.4413C76.2751 33.5029 76.1284 33.5337 75.9604 33.5337ZM77.5892 34.3316C77.5302 34.3316 77.4772 34.3267 77.431 34.3169C77.3847 34.3081 77.3524 34.2993 77.3348 34.2905L77.4237 33.9854C77.5083 34.0069 77.5838 34.0148 77.6483 34.0089C77.7134 34.003 77.7712 33.9742 77.8218 33.9224C77.8729 33.8715 77.9197 33.7889 77.9624 33.6745L78.0275 33.4985L77.1869 31.2338H77.5655L78.1931 33.0291H78.2168L78.8438 31.2338H79.223L78.2582 33.8153C78.215 33.9316 78.1608 34.028 78.0969 34.1042C78.033 34.1815 77.9581 34.2387 77.8735 34.2758C77.7895 34.313 77.6951 34.3316 77.5892 34.3316Z" fill="black"/>
</g>
</g>
<defs>
<linearGradient id="paint0_linear_2045_172" x1="47.7863" y1="0.328613" x2="47.7863" y2="21.4056" gradientUnits="userSpaceOnUse">
<stop stop-color="#8A38F5"/>
<stop offset="1" stop-color="#CAA2FF"/>
</linearGradient>
<clipPath id="clip0_2045_172">
<rect width="84" height="35" fill="white"/>
</clipPath>
</defs>
</svg>
