<svg width="24" height="24" viewBox="0 0 24 24" fill="none" xmlns="http://www.w3.org/2000/svg">
<g clip-path="url(#clip0_2045_211)">
<path d="M12 24C18.6275 24 24 18.6275 24 12C24 5.3725 18.6275 0 12 0C5.3725 0 0 5.3725 0 12C0 18.6275 5.3725 24 12 24Z" fill="#25D366"/>
<path fill-rule="evenodd" clip-rule="evenodd" d="M12.3955 18.6764H12.3925C11.1985 18.6759 10.025 18.3764 8.98251 17.8074L5.20001 18.7999L6.21251 15.1024C5.58695 14.0176 5.25841 12.7871 5.26001 11.5349C5.26151 7.6009 8.46251 4.3999 12.395 4.3999C14.3045 4.4009 16.096 5.1439 17.443 6.4924C18.1075 7.15408 18.6342 7.94097 18.9926 8.80754C19.351 9.67411 19.534 10.6031 19.531 11.5409C19.5295 15.4739 16.33 18.6744 12.396 18.6759L12.3955 18.6764ZM9.15801 16.5159L9.37451 16.6444C10.2884 17.1856 11.3309 17.4711 12.393 17.4709H12.3955C15.6645 17.4709 18.325 14.8109 18.3265 11.5404C18.329 10.761 18.1769 9.98883 17.879 9.2686C17.5811 8.54836 17.1433 7.89435 16.591 7.3444C16.0419 6.79151 15.3886 6.35307 14.6688 6.05448C13.9491 5.75588 13.1772 5.60307 12.398 5.6049C9.12651 5.6049 6.46601 8.2654 6.46451 11.5354C6.46451 12.6559 6.77751 13.7474 7.37151 14.6919L7.51251 14.9159L6.91301 17.1049L9.15801 16.5159ZM15.746 13.0769C15.871 13.1369 15.9545 13.1774 15.9905 13.2374C16.035 13.3119 16.035 13.6689 15.8865 14.0854C15.738 14.5019 15.0255 14.8819 14.683 14.9329C14.376 14.9789 13.987 14.9979 13.56 14.8629C13.2148 14.7556 12.8755 14.6301 12.5435 14.4869C10.872 13.7649 9.74251 12.1449 9.52901 11.8389C9.51401 11.8174 9.50401 11.8024 9.49751 11.7949L9.49651 11.7929C9.40201 11.6669 8.77001 10.8229 8.77001 9.9504C8.77001 9.1289 9.17301 8.6984 9.35901 8.5004L9.39401 8.4629C9.45354 8.395 9.52646 8.34013 9.60821 8.30176C9.68995 8.26338 9.77874 8.24232 9.86901 8.2399C9.98801 8.2399 10.107 8.2409 10.211 8.2459C10.224 8.2469 10.237 8.2469 10.251 8.2464C10.3545 8.2464 10.4845 8.2454 10.612 8.5524C10.6615 8.6704 10.733 8.8454 10.809 9.0304C10.9625 9.4039 11.132 9.8164 11.162 9.8759C11.2065 9.9654 11.236 10.0694 11.177 10.1884L11.152 10.2394C11.107 10.3304 11.074 10.3974 10.9985 10.4859C10.9685 10.5209 10.938 10.5579 10.907 10.5959C10.8455 10.6704 10.7845 10.7449 10.731 10.7984C10.6415 10.8869 10.549 10.9834 10.6525 11.1619C10.757 11.3404 11.1145 11.9244 11.6445 12.3969C12.2145 12.9054 12.7095 13.1204 12.9605 13.2289C13.0095 13.2504 13.0495 13.2674 13.0785 13.2819C13.2565 13.3714 13.3605 13.3569 13.4645 13.2374C13.5685 13.1184 13.9105 12.7169 14.0295 12.5384C14.148 12.3599 14.267 12.3899 14.4305 12.4489C14.594 12.5089 15.4705 12.9399 15.6485 13.0289L15.746 13.0769Z" fill="#FDFDFD"/>
</g>
<defs>
<clipPath id="clip0_2045_211">
<rect width="24" height="24" fill="white"/>
</clipPath>
</defs>
</svg>
