<?xml version="1.0" encoding="UTF-8"?>
<svg version="1.1" xmlns="http://www.w3.org/2000/svg" width="512" height="512">
<path d="M0 0 C1.72278413 -0.00300467 3.44556759 -0.00641011 5.16835022 -0.01017761 C9.78494055 -0.0188931 14.40151227 -0.0213505 19.01811004 -0.0219934 C21.92376563 -0.02271152 24.82941672 -0.02486006 27.73507118 -0.02749062 C37.9334098 -0.03670583 48.13173548 -0.04083069 58.33007812 -0.04003906 C67.73542343 -0.03944065 77.14071094 -0.04995584 86.54604167 -0.06578273 C94.70146069 -0.07900172 102.85686117 -0.08421698 111.01229078 -0.08358365 C115.84710916 -0.08333266 120.68187617 -0.08595631 125.51668358 -0.0967617 C243.90168362 -0.34278283 243.90168362 -0.34278283 280.72973633 32.14526367 C281.53668945 32.82073242 282.34364258 33.49620117 283.17504883 34.19213867 C294.49503208 43.91525908 302.92643583 54.92876018 309.72973633 68.14526367 C310.18864258 68.99991211 310.64754883 69.85456055 311.12036133 70.73510742 C327.94096566 104.42954585 327.88817342 147.53849352 327.875 184.41552734 C327.87800467 186.13831147 327.88141011 187.86109494 327.88517761 189.58387756 C327.8938931 194.20046789 327.8963505 198.81703961 327.8969934 203.43363738 C327.89771152 206.33929298 327.89986006 209.24494406 327.90249062 212.15059853 C327.91170583 222.34893715 327.91583069 232.54726282 327.91503906 242.74560547 C327.91444065 252.15095077 327.92495584 261.55623829 327.94078273 270.96156901 C327.95400172 279.11698803 327.95921698 287.27238851 327.95858365 295.42781812 C327.95833266 300.26263651 327.96095631 305.09740351 327.9717617 309.93221092 C328.21778283 428.31721096 328.21778283 428.31721096 295.72973633 465.14526367 C295.05426758 465.9522168 294.37879883 466.75916992 293.68286133 467.59057617 C283.95974092 478.91055943 272.94623982 487.34196317 259.72973633 494.14526367 C258.87508789 494.60416992 258.02043945 495.06307617 257.13989258 495.53588867 C223.44545415 512.356493 180.33650648 512.30370077 143.45947266 512.29052734 C141.73668853 512.29353201 140.01390506 512.29693745 138.29112244 512.30070496 C133.67453211 512.30942045 129.05796039 512.31187784 124.44136262 512.31252074 C121.53570702 512.31323886 118.63005594 512.31538741 115.72440147 512.31801796 C105.52606285 512.32723318 95.32773718 512.33135804 85.12939453 512.33056641 C75.72404923 512.329968 66.31876171 512.34048318 56.91343099 512.35631007 C48.75801197 512.36952907 40.60261149 512.37474432 32.44718188 512.374111 C27.61236349 512.37386 22.77759649 512.37648366 17.94278908 512.38728905 C-100.44221096 512.63331017 -100.44221096 512.63331017 -137.27026367 480.14526367 C-138.0772168 479.46979492 -138.88416992 478.79432617 -139.71557617 478.09838867 C-151.03555943 468.37526826 -159.46696317 457.36176717 -166.27026367 444.14526367 C-166.72916992 443.29061523 -167.18807617 442.4359668 -167.66088867 441.55541992 C-184.481493 407.8609815 -184.42870077 364.75203382 -184.41552734 327.875 C-184.41853201 326.15221587 -184.42193745 324.42943241 -184.42570496 322.70664978 C-184.43442045 318.09005945 -184.43687784 313.47348773 -184.43752074 308.85688996 C-184.43823886 305.95123437 -184.44038741 303.04558328 -184.44301796 300.13992882 C-184.45223318 289.9415902 -184.45635804 279.74326452 -184.45556641 269.54492188 C-184.454968 260.13957657 -184.46548318 250.73428906 -184.48131007 241.32895833 C-184.49452907 233.17353931 -184.49974432 225.01813883 -184.499111 216.86270922 C-184.49886 212.02789084 -184.50148366 207.19312383 -184.51228905 202.35831642 C-184.75831017 83.97331638 -184.75831017 83.97331638 -152.27026367 47.14526367 C-151.25706055 45.93483398 -151.25706055 45.93483398 -150.22338867 44.69995117 C-140.50026826 33.37996792 -129.48676717 24.94856417 -116.27026367 18.14526367 C-115.41561523 17.68635742 -114.5609668 17.22745117 -113.68041992 16.75463867 C-79.9859815 -0.06596566 -36.87703382 -0.01317342 0 0 Z " fill="#5E23DC" transform="translate(184.270263671875,-0.145263671875)"/>
<path d="M0 0 C3.85381589 1.92996168 6.42314116 4.27528696 9.25 7.5 C10.425625 8.83998047 10.425625 8.83998047 11.625 10.20703125 C14.63301822 13.7444211 17.56387934 17.33944527 20.484375 20.94921875 C23.42924949 24.52056499 26.45716976 28.01214487 29.5 31.5 C33.23415168 35.78206292 36.92459104 40.08331835 40.5 44.5 C45.62862131 50.82873745 50.99274671 56.94705834 56.34033203 63.09033203 C63.20673352 70.99103701 69.98612364 78.9463861 76.578125 87.078125 C80.0744774 91.29630499 83.68213758 95.41632662 87.30834961 99.52319336 C88.33144965 100.69061934 89.34445814 101.86699809 90.34519291 103.05365181 C91.40226663 104.29695899 92.48241961 105.52123982 93.59091091 106.7189312 C98.41037287 112.34042001 98.84974207 116.85264539 98.72875977 124.09423828 C98.7344548 125.17816864 98.74014984 126.262099 98.74601746 127.37887573 C98.75708533 130.94336126 98.72511527 134.50599147 98.69140625 138.0703125 C98.68782748 140.55557032 98.68647208 143.04083225 98.6872406 145.52609253 C98.68255578 150.72615078 98.65776097 155.92558658 98.61743164 161.12548828 C98.56640895 167.78817646 98.55499068 174.44983701 98.55726719 181.1127491 C98.55645122 186.24118551 98.53999471 191.36947307 98.51826286 196.49785995 C98.50872363 198.95462798 98.5028055 201.41141285 98.50058174 203.86819839 C98.4940716 207.30060788 98.46779954 210.73229647 98.43579102 214.16455078 C98.43783035 215.68426483 98.43783035 215.68426483 98.43991089 217.23468018 C98.36799321 222.51300186 98.16428026 226.55065939 95 231 C91.42755938 233.84194057 88.70960421 234.37973391 84.20336914 234.40405273 C82.49117943 234.42307899 82.49117943 234.42307899 80.74440002 234.44248962 C79.52034958 234.43955399 78.29629913 234.43661835 77.03515625 234.43359375 C75.76909042 234.4388356 74.5030246 234.44407745 73.19859314 234.44947815 C70.52278484 234.45589792 67.84783052 234.45600412 65.17211914 234.44604492 C61.75452627 234.43455978 58.33796738 234.45476522 54.92051029 234.48396206 C51.64622088 234.50679128 48.37200657 234.49985448 45.09765625 234.49609375 C43.26461693 234.51294472 43.26461693 234.51294472 41.39454651 234.53013611 C30.48922944 234.44075888 30.48922944 234.44075888 26 230 C23.88503194 225.89201421 23.7541622 222.3916729 23.76049805 217.81054688 C23.75848389 217.10583755 23.75646973 216.40112823 23.75439453 215.67506409 C23.75086108 214.15167126 23.7516012 212.62826373 23.75617027 211.10487366 C23.76178148 208.6917742 23.7525764 206.27915215 23.7389679 203.86608887 C23.70190903 197.00787147 23.68331187 190.14981873 23.69458008 183.29150391 C23.70043522 179.09039173 23.68215548 174.88995462 23.64869118 170.6889801 C23.64074547 169.09104804 23.64200301 167.49304225 23.65271568 165.89512634 C23.66706485 163.65915613 23.65075485 161.42530659 23.62768555 159.18945312 C23.62705612 157.91880005 23.6264267 156.64814697 23.6257782 155.33898926 C22.8369577 151.13004879 21.26824358 149.67089488 18 147 C15.03736656 145.51868328 12.01142072 145.81672309 8.76171875 145.796875 C8.04393753 145.79117493 7.32615631 145.78547485 6.58662415 145.77960205 C5.06598383 145.77015048 3.54532301 145.76361744 2.0246582 145.75976562 C-0.29317389 145.75008075 -2.61011125 145.7190692 -4.92773438 145.6875 C-6.40624474 145.68096763 -7.88476145 145.67571808 -9.36328125 145.671875 C-10.05303543 145.6595282 -10.74278961 145.6471814 -11.45344543 145.63446045 C-15.80959553 145.65445464 -18.58587364 146.25069102 -22 149 C-24.39821924 152.57571207 -24.25704758 155.85014445 -24.27124023 160.07592773 C-24.27908035 161.13277267 -24.27908035 161.13277267 -24.28707886 162.21096802 C-24.29730066 163.73708818 -24.30309609 165.26324303 -24.30496025 166.78939629 C-24.30862868 169.20661003 -24.32536772 171.62341525 -24.34571838 174.0405426 C-24.40108739 180.91147259 -24.4318167 187.78246232 -24.45629883 194.65356445 C-24.47218834 198.85988399 -24.50242037 203.06591265 -24.54106331 207.27208138 C-24.55269964 208.87279227 -24.55864354 210.47355521 -24.55874443 212.0743084 C-24.55893685 214.31473986 -24.57722889 216.55437084 -24.59936523 218.79467773 C-24.60443588 220.06834702 -24.60950653 221.3420163 -24.61473083 222.65428162 C-25.03757255 226.32628405 -25.70319747 228.12534507 -28 231 C-31.71863132 233.88517346 -34.51231465 234.38339786 -39.16381836 234.41992188 C-40.38536118 234.43583374 -41.60690399 234.45174561 -42.86546326 234.46813965 C-44.17700882 234.46834106 -45.48855438 234.46854248 -46.83984375 234.46875 C-48.20838226 234.47585707 -49.57691782 234.48355687 -50.94544983 234.49182129 C-53.80933929 234.5052445 -56.67295318 234.50684468 -59.53686523 234.50097656 C-63.19673261 234.49508093 -66.85527317 234.52567348 -70.514884 234.56609344 C-73.34004265 234.59201415 -76.16488357 234.59484405 -78.99014473 234.59120178 C-80.99203403 234.59370583 -82.99385622 234.61837082 -84.99559021 234.64343262 C-95.11613669 234.56653516 -95.11613669 234.56653516 -98.81079102 231.58789062 C-101.70027253 228.17219931 -102.12656819 226.6376973 -102.17408752 222.27111816 C-102.18702347 221.27312195 -102.19995941 220.27512573 -102.21328735 219.24688721 C-102.22226044 218.14769958 -102.23123352 217.04851196 -102.24047852 215.91601562 C-102.25347488 214.76135803 -102.26647125 213.60670044 -102.27986145 212.41705322 C-102.39175559 201.75034247 -102.45244761 191.08289354 -102.49662876 180.41568756 C-102.52981238 172.53687243 -102.58925095 164.65921318 -102.68413979 156.7808938 C-102.74866161 151.23511141 -102.78219479 145.68964212 -102.79337829 140.1434989 C-102.80091147 136.83487785 -102.82598228 133.52796623 -102.87640572 130.21968079 C-102.92998102 126.51856595 -102.93285966 122.82056231 -102.92407227 119.11914062 C-102.95126343 118.03614685 -102.97845459 116.95315308 -103.00646973 115.83734131 C-102.90309903 107.35868543 -99.77354193 103.00911212 -94 97 C-93.09041469 95.96793422 -92.18250952 94.93438159 -91.27734375 93.8984375 C-90.50519531 93.06570313 -89.73304688 92.23296875 -88.9375 91.375 C-83.94577681 85.94394458 -79.06899031 80.43454378 -74.2890625 74.81640625 C-68.94561163 68.54263412 -63.53959835 62.36211804 -57.93017578 56.32470703 C-55.03251776 53.18496883 -52.29653427 49.95833511 -49.625 46.625 C-45.57269287 41.58503378 -41.22514288 36.89373256 -36.79516602 32.18969727 C-33.57245475 28.74891133 -30.50505794 25.25028677 -27.5625 21.5625 C-23.75547518 16.81082163 -19.70917642 12.32903256 -15.5625 7.875 C-14.63836304 6.87835327 -14.63836304 6.87835327 -13.69555664 5.86157227 C-13.11668701 5.24467529 -12.53781738 4.62777832 -11.94140625 3.9921875 C-11.42263916 3.43901855 -10.90387207 2.88584961 -10.36938477 2.31591797 C-7.2391638 -0.69208542 -4.16585201 -0.28243064 0 0 Z " fill="#EDE5FE" transform="translate(261,182)"/>
<path d="M0 0 C1.72278413 -0.00300467 3.44556759 -0.00641011 5.16835022 -0.01017761 C9.78494055 -0.0188931 14.40151227 -0.0213505 19.01811004 -0.0219934 C21.92376563 -0.02271152 24.82941672 -0.02486006 27.73507118 -0.02749062 C37.9334098 -0.03670583 48.13173548 -0.04083069 58.33007812 -0.04003906 C67.73542343 -0.03944065 77.14071094 -0.04995584 86.54604167 -0.06578273 C94.70146069 -0.07900172 102.85686117 -0.08421698 111.01229078 -0.08358365 C115.84710916 -0.08333266 120.68187617 -0.08595631 125.51668358 -0.0967617 C243.90168362 -0.34278283 243.90168362 -0.34278283 280.72973633 32.14526367 C281.53668945 32.82073242 282.34364258 33.49620117 283.17504883 34.19213867 C294.49503208 43.91525908 302.92643583 54.92876018 309.72973633 68.14526367 C310.18864258 68.99991211 310.64754883 69.85456055 311.12036133 70.73510742 C327.94096566 104.42954585 327.88817342 147.53849352 327.875 184.41552734 C327.87800467 186.13831147 327.88141011 187.86109494 327.88517761 189.58387756 C327.8938931 194.20046789 327.8963505 198.81703961 327.8969934 203.43363738 C327.89771152 206.33929298 327.89986006 209.24494406 327.90249062 212.15059853 C327.91170583 222.34893715 327.91583069 232.54726282 327.91503906 242.74560547 C327.91444065 252.15095077 327.92495584 261.55623829 327.94078273 270.96156901 C327.95400172 279.11698803 327.95921698 287.27238851 327.95858365 295.42781812 C327.95833266 300.26263651 327.96095631 305.09740351 327.9717617 309.93221092 C328.21778283 428.31721096 328.21778283 428.31721096 295.72973633 465.14526367 C295.05426758 465.9522168 294.37879883 466.75916992 293.68286133 467.59057617 C283.95974092 478.91055943 272.94623982 487.34196317 259.72973633 494.14526367 C258.87508789 494.60416992 258.02043945 495.06307617 257.13989258 495.53588867 C223.44545415 512.356493 180.33650648 512.30370077 143.45947266 512.29052734 C141.73668853 512.29353201 140.01390506 512.29693745 138.29112244 512.30070496 C133.67453211 512.30942045 129.05796039 512.31187784 124.44136262 512.31252074 C121.53570702 512.31323886 118.63005594 512.31538741 115.72440147 512.31801796 C105.52606285 512.32723318 95.32773718 512.33135804 85.12939453 512.33056641 C75.72404923 512.329968 66.31876171 512.34048318 56.91343099 512.35631007 C48.75801197 512.36952907 40.60261149 512.37474432 32.44718188 512.374111 C27.61236349 512.37386 22.77759649 512.37648366 17.94278908 512.38728905 C-100.44221096 512.63331017 -100.44221096 512.63331017 -137.27026367 480.14526367 C-138.0772168 479.46979492 -138.88416992 478.79432617 -139.71557617 478.09838867 C-151.03555943 468.37526826 -159.46696317 457.36176717 -166.27026367 444.14526367 C-166.72916992 443.29061523 -167.18807617 442.4359668 -167.66088867 441.55541992 C-184.481493 407.8609815 -184.42870077 364.75203382 -184.41552734 327.875 C-184.41853201 326.15221587 -184.42193745 324.42943241 -184.42570496 322.70664978 C-184.43442045 318.09005945 -184.43687784 313.47348773 -184.43752074 308.85688996 C-184.43823886 305.95123437 -184.44038741 303.04558328 -184.44301796 300.13992882 C-184.45223318 289.9415902 -184.45635804 279.74326452 -184.45556641 269.54492188 C-184.454968 260.13957657 -184.46548318 250.73428906 -184.48131007 241.32895833 C-184.49452907 233.17353931 -184.49974432 225.01813883 -184.499111 216.86270922 C-184.49886 212.02789084 -184.50148366 207.19312383 -184.51228905 202.35831642 C-184.75831017 83.97331638 -184.75831017 83.97331638 -152.27026367 47.14526367 C-151.25706055 45.93483398 -151.25706055 45.93483398 -150.22338867 44.69995117 C-140.50026826 33.37996792 -129.48676717 24.94856417 -116.27026367 18.14526367 C-115.41561523 17.68635742 -114.5609668 17.22745117 -113.68041992 16.75463867 C-79.9859815 -0.06596566 -36.87703382 -0.01317342 0 0 Z M-144.09448242 49.60620117 C-165.78102206 73.13965346 -171.11587275 104.44526574 -174.27026367 135.14526367 C-174.35450781 135.95429453 -174.43875195 136.76332539 -174.52554893 137.59687233 C-176.59440866 158.28402906 -176.56735798 178.919171 -176.53891468 199.68505955 C-176.53375428 204.65330259 -176.53857424 209.62153928 -176.54168701 214.58978271 C-176.54530211 222.93739163 -176.54059705 231.28496489 -176.53100586 239.63256836 C-176.52016919 249.17200137 -176.52362202 258.71134852 -176.53465867 268.25077939 C-176.54385436 276.54228213 -176.54495678 284.83375962 -176.53978133 293.12526584 C-176.53672234 298.03224759 -176.53607746 302.93918961 -176.54285431 307.84616852 C-176.5660015 327.2888968 -176.37272836 346.67863583 -175.33959961 366.09741211 C-175.29810681 366.88406832 -175.25661401 367.67072453 -175.21386385 368.48121881 C-174.56521132 380.47024905 -173.5683171 392.34630279 -171.27026367 404.14526367 C-171.12862793 404.88389648 -170.98699219 405.6225293 -170.84106445 406.38354492 C-164.91821359 436.27921644 -150.17027855 462.83129963 -124.86914062 480.57861328 C-80.93535332 509.97968552 -18.51342425 505.32610073 32.05368042 505.27958918 C35.80312152 505.2769822 39.55256071 505.27942547 43.30200195 505.28097534 C49.58781382 505.28277353 55.87361378 505.28045363 62.15942383 505.27563477 C69.33377284 505.27019678 76.50809339 505.27196113 83.68244171 505.27746117 C89.94248948 505.28206051 96.2025289 505.28261016 102.46257782 505.2800225 C106.15751102 505.27849654 109.85243104 505.2781604 113.54736328 505.28155899 C205.63351557 507.64170787 205.63351557 507.64170787 284.29516602 466.59399414 C322.68612412 427.82409193 320.2311317 366.04654317 320.13271284 315.33823562 C320.12494131 310.05192782 320.13220928 304.765633 320.13687134 299.47932434 C320.14228079 290.61037333 320.13526713 281.74149802 320.12084961 272.87255859 C320.10454781 262.72965065 320.10981348 252.58692399 320.12632883 242.44402045 C320.14010126 233.62073353 320.14178733 224.79750003 320.13401282 215.97420579 C320.12941946 210.75492642 320.12847259 205.53573115 320.13862228 200.31645775 C320.98498879 115.67637346 320.98498879 115.67637346 281.66723633 43.64526367 C267.51874537 29.52154754 249.92158064 21.19824617 230.72973633 16.14526367 C229.73844727 15.88100586 228.7471582 15.61674805 227.72583008 15.34448242 C194.08818899 7.29621247 158.10465426 7.82639439 123.70486093 7.87661266 C119.01817899 7.88179452 114.33150354 7.87694797 109.64482117 7.87384033 C101.77931281 7.87023343 93.91384239 7.87491057 86.04833984 7.88452148 C77.05975805 7.89538051 68.07126724 7.89188554 59.08268768 7.88086867 C51.25993668 7.87167804 43.43721246 7.8705675 35.61445779 7.87574601 C30.98876382 7.87880461 26.36311199 7.87945055 21.73742104 7.87267303 C-68.51975565 6.39742279 -68.51975565 6.39742279 -144.09448242 49.60620117 Z " fill="#C5ABFE" transform="translate(184.270263671875,-0.145263671875)"/>
<path d="M0 0 C7.43236198 2.64541698 11.29527297 8.92139683 16 15 C17.38985612 16.71319976 18.78572227 18.42154097 20.1875 20.125 C20.92613281 21.02734375 21.66476562 21.9296875 22.42578125 22.859375 C23.28373574 23.90634706 24.14182018 24.95321263 25 26 C25.52255371 26.63744141 26.04510742 27.27488281 26.58349609 27.93164062 C32.63360989 35.30721494 38.69299751 42.67187377 44.875 49.9375 C48.57420039 54.28631929 52.18245167 58.69501035 55.73046875 63.16796875 C60.46565575 69.07676492 65.31096566 74.89651532 70.13134766 80.73583984 C73.19415224 84.44689938 76.25347431 88.16082535 79.3125 91.875 C79.90240723 92.59115479 80.49231445 93.30730957 81.10009766 94.04516602 C84.94753796 98.71752268 88.78325768 103.39929128 92.61328125 108.0859375 C96.83532831 113.24084275 101.07466584 118.38150935 105.3125 123.5234375 C107.75283017 126.48466442 110.19019518 129.44829105 112.625 132.4140625 C113.81238867 133.85946647 114.99988758 135.30477987 116.1875 136.75 C116.76798096 137.45672852 117.34846191 138.16345703 117.9465332 138.89160156 C121.08970823 142.70974048 124.26376434 146.49698487 127.484375 150.25 C129.67913991 152.81466911 131.84165016 155.4045589 134 158 C134.81082031 158.96679688 135.62164062 159.93359375 136.45703125 160.9296875 C140.2989919 165.78764826 143.17176655 169.54739758 142.53125 175.9296875 C141.19965178 181.1190041 138.65980553 185.20411668 134 188 C128.57677366 188.9063888 123.63391261 188.92908756 118.8125 186.1875 C117.45703125 184.77734375 117.45703125 184.77734375 116 183 C115.38511719 182.27941406 114.77023437 181.55882812 114.13671875 180.81640625 C112.18954875 178.47766642 110.28433757 176.10963205 108.38818359 173.72949219 C105.72968688 170.41735875 103.01654087 167.14996019 100.3125 163.875 C99.10012051 162.40376111 97.88788274 160.93240543 96.67578125 159.4609375 C96.06686035 158.72198242 95.45793945 157.98302734 94.83056641 157.22167969 C92.46594139 154.35183605 90.10203743 151.48139912 87.73828125 148.61083984 C86.57826194 147.20219842 85.4181054 145.79366998 84.2578125 144.38525391 C81.30067739 140.7955102 78.34569128 137.20403304 75.39453125 133.609375 C69.56713947 126.5153997 63.7115033 119.45104621 57.76098633 112.45996094 C54.45200216 108.56212618 51.25597795 104.58595993 48.08203125 100.578125 C45.66915824 97.59032727 43.18200298 94.6694698 40.6875 91.75 C36.86446845 87.2714028 33.17157893 82.7149958 29.5625 78.0625 C25.31008555 72.58596338 20.88437072 67.29173887 16.34887695 62.0480957 C9.00337598 53.55280166 1.99400561 44.7853858 -5 36 C-9.35456887 37.57878919 -11.77840104 40.97458919 -14.625 44.4375 C-15.69263198 45.71079248 -16.76166222 46.98291375 -17.83203125 48.25390625 C-18.36393066 48.88699707 -18.89583008 49.52008789 -19.44384766 50.17236328 C-21.67666063 52.79470999 -23.98624581 55.33500117 -26.3125 57.875 C-31.21418913 63.22724059 -36.00804882 68.65600496 -40.7109375 74.18359375 C-46.53244664 81.01927657 -52.4475342 87.73564737 -58.54296875 94.328125 C-61.16530261 97.17975673 -63.71988319 100.08130071 -66.2578125 103.0078125 C-68.31500399 105.36020635 -70.40596915 107.68034966 -72.5 110 C-77.31014801 115.33562637 -82.05980237 120.71586881 -86.71484375 126.1875 C-92.05658872 132.46033472 -97.46164546 138.63922067 -103.06982422 144.67529297 C-105.96748224 147.81503117 -108.70346573 151.04166489 -111.375 154.375 C-115.42024456 159.4061823 -119.75558459 164.09454601 -124.18505859 168.78393555 C-128.39378934 173.26709486 -132.25383248 177.91270754 -136 182.79296875 C-138.76474836 185.84391176 -141.35659023 187.63003173 -145.39453125 188.5390625 C-150.60950433 188.72440888 -153.52418515 188.12297288 -157.5625 184.6875 C-161.02084115 181.36832751 -162.15924679 178.57653215 -162.4375 173.8125 C-162.33538944 168.04789473 -159.76881653 165.13450367 -156 161 C-155.21496094 160.12085938 -154.42992187 159.24171875 -153.62109375 158.3359375 C-151.90158739 156.4300419 -150.17222334 154.53299816 -148.43359375 152.64453125 C-144.27713779 148.12780463 -140.26628144 143.49107162 -136.2890625 138.81640625 C-131.38649857 133.06028165 -126.459427 127.35226665 -121.3125 121.8125 C-117.10970691 117.28801899 -113.18310786 112.59186263 -109.3125 107.78125 C-106.35757747 104.22735668 -103.22955431 100.85815456 -100.08154297 97.47607422 C-97.13068108 94.28675885 -94.34007012 91.01635132 -91.625 87.625 C-87.01428361 81.89477513 -82.02243362 76.56914922 -76.99609375 71.20703125 C-72.61883286 66.5360668 -68.4485711 61.70252459 -64.30078125 56.828125 C-63.28418244 55.63513685 -62.26724412 54.44243795 -61.25 53.25 C-60.477771 52.34447388 -60.477771 52.34447388 -59.68994141 51.4206543 C-56.30897905 47.47514594 -52.84895643 43.6188291 -49.3125 39.8125 C-45.92475627 36.16586624 -42.68102204 32.44382599 -39.5625 28.5625 C-35.65280546 23.70350913 -31.50576436 19.12670521 -27.24609375 14.5769043 C-24.59353957 11.74143012 -22.02322162 8.8811393 -19.5625 5.875 C-13.80053684 -0.58964159 -8.28927026 -0.92963779 0 0 Z " fill="#EEE7FE" transform="translate(266,84)"/>
<path d="M0 0 C4.95 0 9.9 0 15 0 C15 4.62 15 9.24 15 14 C10.05 14 5.1 14 0 14 C0 9.38 0 4.76 0 0 Z " fill="#6B35DF" transform="translate(243,280)"/>
<path d="M0 0 C4.62 0 9.24 0 14 0 C14 4.62 14 9.24 14 14 C9.38 14 4.76 14 0 14 C0 9.38 0 4.76 0 0 Z " fill="#632ADD" transform="translate(260,280)"/>
<path d="M0 0 C4.62 0 9.24 0 14 0 C14 4.62 14 9.24 14 14 C9.38 14 4.76 14 0 14 C0 9.38 0 4.76 0 0 Z " fill="#6026DC" transform="translate(260,262)"/>
<path d="M0 0 C4.29 0 8.58 0 13 0 C13 4.62 13 9.24 13 14 C8.71 14 4.42 14 0 14 C0 9.38 0 4.76 0 0 Z " fill="#5F24DC" transform="translate(244,262)"/>
</svg>
