<svg width="121" height="106" viewBox="0 0 121 106" fill="none" xmlns="http://www.w3.org/2000/svg">
<g clip-path="url(#clip0_2001_87)">
<path d="M121.004 70.3258C120.107 70.7648 119.254 71.3212 118.48 72.0573C116.824 73.6403 115.545 75.9963 115.092 79.4902L114.153 78.3461L107.427 70.2081L104.836 67.0667L102.499 64.2408L60.341 13.1933L18.3806 60.6108L13.1564 66.5226L5.90433 74.7161C5.62606 70.7957 3.31384 67.4441 0 65.7065L7.17172 57.6055L11.3079 52.9243L56.5757 1.74707C57.5896 0.615426 59.0427 -0.0524282 60.5574 0.0032257C62.0783 0.0341456 63.5063 0.714366 64.4769 1.8831L107.421 53.889L109.825 56.8078L111.347 58.6383L114.148 62.0271L120.997 70.3319L121.004 70.3258Z" fill="#0BB501"/>
<path d="M91.6496 68.2791V103.205C91.6496 104.937 90.2523 106.334 88.5212 106.334H68.3478V78.3712C68.3478 77.9012 67.9708 77.5177 67.4946 77.5177H53.5284C53.0585 77.5177 52.6754 77.8948 52.6754 78.3712V106.334H29.6951C27.964 106.334 26.5667 104.937 26.5667 103.205V68.3346C26.5667 67.5802 26.8511 66.8444 27.3519 66.2631L29.6951 63.6165L57.8006 31.8439C59.068 30.4092 61.3245 30.4463 62.5425 31.9306L88.713 63.6165L90.914 66.2815C91.3775 66.8505 91.6309 67.5494 91.6309 68.2729L91.6496 68.2791Z" fill="#076300"/>
<path d="M59.4152 55.4166H55.1553V59.6773H59.4152V55.4166Z" fill="white"/>
<path d="M59.4152 60.9449H55.1553V65.2056H59.4152V60.9449Z" fill="white"/>
<path d="M64.7746 55.4166H60.5149V59.6773H64.7746V55.4166Z" fill="white"/>
<path d="M64.7746 60.9449H60.5149V65.2056H64.7746V60.9449Z" fill="white"/>
</g>
<defs>
<clipPath id="clip0_2001_87">
<rect width="121" height="106" fill="white"/>
</clipPath>
</defs>
</svg>
