<svg width="326" height="137" viewBox="0 0 326 137" fill="none" xmlns="http://www.w3.org/2000/svg">
<g clip-path="url(#clip0_2001_213)">
<g clip-path="url(#clip1_2001_213)">
<mask id="mask0_2001_213" style="mask-type:luminance" maskUnits="userSpaceOnUse" x="0" y="0" width="326" height="137">
<path d="M325.005 0H0V137H325.005V0Z" fill="white"/>
</mask>
<g mask="url(#mask0_2001_213)">
<path d="M248.27 74.2762C247.339 74.7318 246.454 75.3094 245.65 76.0733C243.931 77.7163 242.603 80.1615 242.133 83.7878L241.157 82.6004L234.174 74.1541L231.485 70.8937L229.058 67.9607L185.289 14.9796L141.725 64.1932L136.301 70.3289L128.772 78.8329C128.483 74.764 126.083 71.2853 122.642 69.4819L130.088 61.0741L134.382 56.2156L181.38 3.09981C182.433 1.9253 183.941 1.23215 185.514 1.28991C187.093 1.322 188.575 2.02799 189.583 3.24099L234.168 57.2169L236.664 60.2462L238.245 62.146L241.153 65.6631L248.263 74.2826L248.27 74.2762Z" fill="#0BB501"/>
<path d="M217.794 72.152V108.401C217.794 110.198 216.344 111.649 214.546 111.649H193.602V82.6264C193.602 82.1386 193.211 81.7406 192.716 81.7406H178.216C177.728 81.7406 177.331 82.132 177.331 82.6264V111.649H153.472C151.675 111.649 150.224 110.198 150.224 108.401V72.2096C150.224 71.4266 150.519 70.663 151.039 70.0597L153.472 67.3128L182.652 34.3367C183.967 32.8476 186.31 32.8861 187.575 34.4267L214.745 67.3128L217.031 70.0788C217.512 70.6693 217.775 71.3947 217.775 72.1456L217.794 72.152Z" fill="#076300"/>
<path d="M325.008 54.7204L305.186 105.718C303.634 109.717 299.788 112.348 295.493 112.348H291.874C287.586 112.348 283.736 109.717 282.181 105.718L262.362 54.7204H282.028L293.736 91.5472L305.443 54.7204H324.994H325.008Z" fill="#076300"/>
<path d="M35.5994 54.3418V73.5511C35.5994 73.5511 18.0699 68.7631 17.9993 86.721C17.9287 104.679 17.9993 111.642 17.9993 111.642H0.0396205V87.2151C0.0396205 87.2151 -2.61773 54.3354 35.5931 54.3354L35.5994 54.3418Z" fill="#076300"/>
<path d="M259.541 54.3418V73.5574C259.541 73.5574 253.309 71.8565 248.263 74.2826C247.332 74.7318 246.446 75.316 245.646 76.0797C243.923 77.7163 242.596 80.1679 242.128 83.7878C242.005 84.6863 241.942 85.6682 241.934 86.7274C241.934 87.337 241.927 87.9276 241.927 88.5178C241.871 105.147 241.934 111.649 241.934 111.649H223.975V87.2215C223.975 87.2215 223.32 79.0705 227.37 70.894C227.858 69.9121 228.41 68.9299 229.046 67.9544C230.368 65.9199 232.043 63.9367 234.142 62.146C234.919 61.4851 235.76 60.8431 236.664 60.2399C241.878 56.7357 249.22 54.3418 259.541 54.3418Z" fill="#076300"/>
<path d="M65.2841 100.52C56.2721 99.1398 53.7881 90.9247 53.7881 90.9247C89.2902 79.2438 83.2181 55.8308 83.2181 55.8308C80.3488 54.3675 60.8937 49.6566 48.8714 59.5662C36.8491 69.4755 36.5153 85.4693 39.4422 94.5061C48.8714 123.002 82.9164 110.108 82.9164 110.108V96.6946C81.209 97.9975 74.3088 101.893 65.2841 100.52ZM59.1156 66.9982C63.0118 63.7891 69.3085 65.3166 70.2393 65.7853C70.2393 65.7853 72.6978 75.2583 56.0604 78.3132C55.1167 75.3866 55.2194 70.2073 59.1156 66.9982Z" fill="#076300"/>
<path d="M141.725 64.1932C139.806 61.0869 137.309 58.3785 134.382 56.2156C129.606 52.6729 123.694 50.5806 117.302 50.5806C102.307 50.5806 89.9962 62.0754 88.6995 76.7342C88.6161 77.5814 88.5776 78.4351 88.5776 79.3079V132.263C88.5776 132.263 99.7911 132.751 103.052 120.082V104.236C107.25 106.642 112.115 108.016 117.308 108.016C133.169 108.016 146.032 95.1604 146.032 79.3015C146.032 73.7563 144.466 68.5834 141.731 64.1932H141.725ZM117.302 91.1685C110.947 91.1685 105.799 86.0211 105.799 79.6674C105.799 73.3134 110.947 68.1662 117.302 68.1662C119.233 68.1662 121.05 68.641 122.648 69.4819C126.082 71.2853 128.483 74.7703 128.778 78.8329C128.804 79.109 128.81 79.3849 128.81 79.6674C128.81 86.0211 123.663 91.1685 117.308 91.1685H117.302Z" fill="#076300"/>
<path d="M184.328 58.8023H179.905V63.2243H184.328V58.8023Z" fill="white"/>
<path d="M184.328 64.54H179.905V68.962H184.328V64.54Z" fill="white"/>
<path d="M189.892 58.8023H185.47V63.2243H189.892V58.8023Z" fill="white"/>
<path d="M189.892 64.54H185.47V68.962H189.892V64.54Z" fill="white"/>
<path d="M117.21 120.583V119.32H126.03V120.583H122.332V131.078H120.908V120.583H117.21ZM127.128 131.078V122.259H128.437V123.591H128.529C128.69 123.155 128.98 122.801 129.402 122.529C129.823 122.257 130.297 122.121 130.826 122.121C130.925 122.121 131.05 122.123 131.199 122.127C131.348 122.131 131.461 122.137 131.538 122.144V123.522C131.492 123.511 131.386 123.493 131.222 123.471C131.061 123.444 130.891 123.43 130.711 123.43C130.282 123.43 129.899 123.52 129.562 123.7C129.229 123.876 128.965 124.121 128.77 124.435C128.579 124.745 128.483 125.099 128.483 125.497V131.078H127.128ZM138.702 127.472V122.259H140.057V131.078H138.702V129.585H138.61C138.403 130.033 138.082 130.413 137.645 130.727C137.209 131.037 136.658 131.192 135.992 131.192C135.44 131.192 134.951 131.072 134.522 130.831C134.093 130.586 133.756 130.218 133.511 129.728C133.266 129.235 133.144 128.613 133.144 127.863V122.259H134.499V127.771C134.499 128.414 134.679 128.926 135.039 129.309C135.402 129.692 135.865 129.883 136.428 129.883C136.765 129.883 137.108 129.797 137.456 129.625C137.808 129.453 138.103 129.189 138.34 128.833C138.581 128.477 138.702 128.023 138.702 127.472ZM146.374 122.259V123.407H141.804V122.259H146.374ZM143.136 120.146H144.491V128.551C144.491 128.934 144.547 129.221 144.658 129.413C144.772 129.6 144.918 129.727 145.094 129.791C145.274 129.853 145.463 129.883 145.662 129.883C145.812 129.883 145.934 129.876 146.03 129.86C146.125 129.841 146.202 129.826 146.259 129.815L146.535 131.032C146.443 131.066 146.315 131.101 146.15 131.135C145.986 131.173 145.777 131.192 145.525 131.192C145.142 131.192 144.767 131.11 144.399 130.946C144.036 130.781 143.733 130.53 143.492 130.193C143.255 129.857 143.136 129.432 143.136 128.919V120.146ZM149.957 125.773V131.078H148.602V119.32H149.957V123.637H150.072C150.279 123.181 150.589 122.82 151.002 122.552C151.419 122.28 151.974 122.144 152.667 122.144C153.268 122.144 153.795 122.265 154.246 122.506C154.698 122.743 155.048 123.109 155.297 123.603C155.55 124.092 155.676 124.716 155.676 125.474V131.078H154.321V125.566C154.321 124.866 154.139 124.324 153.775 123.941C153.416 123.555 152.916 123.361 152.277 123.361C151.833 123.361 151.435 123.455 151.083 123.643C150.734 123.83 150.459 124.104 150.256 124.464C150.057 124.824 149.957 125.26 149.957 125.773ZM159.143 131.169C158.859 131.169 158.616 131.068 158.413 130.865C158.21 130.662 158.109 130.419 158.109 130.136C158.109 129.853 158.21 129.61 158.413 129.407C158.616 129.204 158.859 129.103 159.143 129.103C159.426 129.103 159.669 129.204 159.872 129.407C160.075 129.61 160.176 129.853 160.176 130.136C160.176 130.324 160.128 130.496 160.032 130.653C159.941 130.81 159.816 130.936 159.659 131.032C159.506 131.123 159.334 131.169 159.143 131.169ZM161.596 120.583V119.32H170.415V120.583H166.717V131.078H165.293V120.583H161.596ZM171.513 131.078V122.259H172.822V123.591H172.914C173.075 123.155 173.366 122.801 173.787 122.529C174.208 122.257 174.683 122.121 175.211 122.121C175.311 122.121 175.435 122.123 175.584 122.127C175.733 122.131 175.846 122.137 175.923 122.144V123.522C175.877 123.511 175.772 123.493 175.607 123.471C175.446 123.444 175.276 123.43 175.096 123.43C174.667 123.43 174.285 123.52 173.948 123.7C173.615 123.876 173.35 124.121 173.155 124.435C172.964 124.745 172.868 125.099 172.868 125.497V131.078H171.513ZM183.087 127.472V122.259H184.442V131.078H183.087V129.585H182.995C182.789 130.033 182.467 130.413 182.031 130.727C181.594 131.037 181.043 131.192 180.377 131.192C179.826 131.192 179.336 131.072 178.907 130.831C178.478 130.586 178.142 130.218 177.897 129.728C177.652 129.235 177.529 128.613 177.529 127.863V122.259H178.884V127.771C178.884 128.414 179.064 128.926 179.424 129.309C179.788 129.692 180.251 129.883 180.814 129.883C181.15 129.883 181.493 129.797 181.841 129.625C182.193 129.453 182.488 129.189 182.725 128.833C182.967 128.477 183.087 128.023 183.087 127.472ZM193.171 124.234L191.954 124.579C191.877 124.376 191.764 124.178 191.615 123.987C191.47 123.792 191.271 123.631 191.018 123.505C190.765 123.379 190.442 123.316 190.048 123.316C189.508 123.316 189.058 123.44 188.698 123.689C188.342 123.934 188.164 124.246 188.164 124.624C188.164 124.961 188.287 125.227 188.532 125.423C188.777 125.618 189.16 125.78 189.68 125.911L190.989 126.232C191.778 126.423 192.365 126.716 192.752 127.111C193.139 127.501 193.332 128.004 193.332 128.62C193.332 129.126 193.186 129.577 192.896 129.975C192.608 130.373 192.207 130.687 191.69 130.917C191.173 131.146 190.572 131.261 189.887 131.261C188.987 131.261 188.243 131.066 187.653 130.676C187.064 130.285 186.69 129.715 186.534 128.965L187.82 128.643C187.942 129.118 188.174 129.474 188.514 129.711C188.859 129.949 189.309 130.067 189.864 130.067C190.495 130.067 190.997 129.933 191.368 129.665C191.743 129.393 191.931 129.068 191.931 128.689C191.931 128.383 191.824 128.127 191.609 127.92C191.395 127.709 191.066 127.552 190.622 127.449L189.152 127.105C188.344 126.913 187.751 126.617 187.372 126.215C186.997 125.809 186.809 125.302 186.809 124.693C186.809 124.196 186.949 123.756 187.228 123.373C187.512 122.99 187.896 122.69 188.382 122.472C188.873 122.253 189.427 122.144 190.048 122.144C190.92 122.144 191.606 122.336 192.103 122.718C192.605 123.101 192.961 123.606 193.171 124.234ZM199.207 122.259V123.407H194.637V122.259H199.207ZM195.969 120.146H197.324V128.551C197.324 128.934 197.379 129.221 197.49 129.413C197.605 129.6 197.751 129.727 197.927 129.791C198.107 129.853 198.296 129.883 198.495 129.883C198.645 129.883 198.767 129.876 198.863 129.86C198.958 129.841 199.035 129.826 199.092 129.815L199.368 131.032C199.276 131.066 199.148 131.101 198.983 131.135C198.819 131.173 198.61 131.192 198.357 131.192C197.975 131.192 197.599 131.11 197.232 130.946C196.868 130.781 196.566 130.53 196.325 130.193C196.088 129.857 195.969 129.432 195.969 128.919V120.146ZM202.233 131.169C201.95 131.169 201.707 131.068 201.504 130.865C201.301 130.662 201.2 130.419 201.2 130.136C201.2 129.853 201.301 129.61 201.504 129.407C201.707 129.204 201.95 129.103 202.233 129.103C202.516 129.103 202.759 129.204 202.962 129.407C203.165 129.61 203.267 129.853 203.267 130.136C203.267 130.324 203.219 130.496 203.123 130.653C203.031 130.81 202.907 130.936 202.75 131.032C202.597 131.123 202.424 131.169 202.233 131.169ZM204.686 120.583V119.32H213.506V120.583H209.808V131.078H208.384V120.583H204.686ZM214.604 131.078V122.259H215.913V123.591H216.005C216.165 123.155 216.456 122.801 216.877 122.529C217.299 122.257 217.773 122.121 218.301 122.121C218.401 122.121 218.525 122.123 218.675 122.127C218.824 122.131 218.937 122.137 219.013 122.144V123.522C218.967 123.511 218.862 123.493 218.698 123.471C218.537 123.444 218.366 123.43 218.187 123.43C217.758 123.43 217.375 123.52 217.038 123.7C216.705 123.876 216.441 124.121 216.246 124.435C216.054 124.745 215.959 125.099 215.959 125.497V131.078H214.604ZM223.215 131.284C222.656 131.284 222.149 131.179 221.693 130.968C221.238 130.754 220.876 130.446 220.608 130.044C220.34 129.638 220.206 129.149 220.206 128.575C220.206 128.069 220.306 127.66 220.505 127.346C220.704 127.028 220.97 126.779 221.303 126.599C221.636 126.42 222.003 126.286 222.405 126.198C222.811 126.106 223.219 126.033 223.628 125.979C224.164 125.911 224.599 125.859 224.932 125.824C225.269 125.786 225.514 125.723 225.667 125.635C225.824 125.547 225.902 125.394 225.902 125.176V125.13C225.902 124.563 225.747 124.123 225.437 123.809C225.131 123.495 224.666 123.339 224.042 123.339C223.395 123.339 222.888 123.48 222.52 123.763C222.153 124.046 221.894 124.349 221.745 124.67L220.459 124.211C220.689 123.675 220.995 123.258 221.378 122.96C221.764 122.657 222.185 122.447 222.641 122.328C223.1 122.205 223.552 122.144 223.996 122.144C224.279 122.144 224.605 122.179 224.972 122.248C225.343 122.313 225.701 122.448 226.046 122.655C226.394 122.862 226.683 123.174 226.913 123.591C227.142 124.008 227.257 124.567 227.257 125.267V131.078H225.902V129.883H225.833C225.741 130.075 225.588 130.279 225.374 130.498C225.159 130.716 224.874 130.901 224.518 131.055C224.162 131.208 223.728 131.284 223.215 131.284ZM223.422 130.067C223.958 130.067 224.409 129.962 224.777 129.751C225.148 129.541 225.427 129.269 225.615 128.936C225.806 128.603 225.902 128.253 225.902 127.886V126.645C225.845 126.714 225.718 126.777 225.523 126.835C225.332 126.888 225.11 126.936 224.857 126.978C224.608 127.017 224.365 127.051 224.128 127.082C223.894 127.108 223.705 127.132 223.559 127.151C223.207 127.196 222.878 127.271 222.572 127.375C222.269 127.474 222.024 127.625 221.837 127.828C221.653 128.027 221.561 128.299 221.561 128.643C221.561 129.114 221.736 129.47 222.084 129.711C222.436 129.949 222.882 130.067 223.422 130.067ZM231.086 125.773V131.078H229.73V122.259H231.04V123.637H231.154C231.361 123.189 231.675 122.83 232.096 122.558C232.517 122.282 233.061 122.144 233.727 122.144C234.324 122.144 234.846 122.267 235.294 122.512C235.742 122.753 236.09 123.12 236.338 123.614C236.589 124.104 236.711 124.724 236.711 125.474V131.078H235.357V125.566C235.357 124.873 235.177 124.334 234.818 123.947C234.458 123.557 233.964 123.361 233.336 123.361C232.904 123.361 232.517 123.455 232.176 123.643C231.84 123.83 231.573 124.104 231.378 124.464C231.183 124.824 231.086 125.26 231.086 125.773ZM245.435 124.234L244.219 124.579C244.141 124.376 244.03 124.178 243.879 123.987C243.735 123.792 243.536 123.631 243.283 123.505C243.031 123.379 242.707 123.316 242.312 123.316C241.772 123.316 241.323 123.44 240.964 123.689C240.607 123.934 240.43 124.246 240.43 124.624C240.43 124.961 240.55 125.227 240.796 125.423C241.042 125.618 241.424 125.78 241.944 125.911L243.253 126.232C244.042 126.423 244.63 126.716 245.017 127.111C245.402 127.501 245.596 128.004 245.596 128.62C245.596 129.126 245.452 129.577 245.159 129.975C244.873 130.373 244.472 130.687 243.954 130.917C243.437 131.146 242.837 131.261 242.152 131.261C241.252 131.261 240.508 131.066 239.917 130.676C239.329 130.285 238.956 129.715 238.797 128.965L240.085 128.643C240.208 129.118 240.439 129.474 240.779 129.711C241.124 129.949 241.573 130.067 242.128 130.067C242.759 130.067 243.262 129.933 243.633 129.665C244.009 129.393 244.195 129.068 244.195 128.689C244.195 128.383 244.089 128.127 243.874 127.92C243.659 127.709 243.331 127.552 242.887 127.449L241.417 127.105C240.609 126.913 240.016 126.617 239.636 126.215C239.26 125.809 239.074 125.302 239.074 124.693C239.074 124.196 239.213 123.756 239.492 123.373C239.775 122.99 240.16 122.69 240.647 122.472C241.136 122.253 241.691 122.144 242.312 122.144C243.184 122.144 243.869 122.336 244.368 122.718C244.869 123.101 245.225 123.606 245.435 124.234ZM247.637 134.385V122.259H248.946V123.66H249.107C249.206 123.507 249.343 123.312 249.52 123.074C249.699 122.833 249.955 122.619 250.288 122.431C250.625 122.24 251.081 122.144 251.655 122.144C252.397 122.144 253.052 122.33 253.619 122.701C254.186 123.073 254.627 123.599 254.946 124.28C255.263 124.961 255.421 125.765 255.421 126.691C255.421 127.625 255.263 128.435 254.946 129.12C254.627 129.801 254.188 130.329 253.626 130.704C253.061 131.076 252.414 131.261 251.679 131.261C251.112 131.261 250.659 131.168 250.318 130.98C249.976 130.788 249.714 130.572 249.532 130.331C249.347 130.086 249.206 129.883 249.107 129.723H248.991V134.385H247.637ZM248.967 126.668C248.967 127.334 249.066 127.922 249.26 128.431C249.456 128.936 249.742 129.332 250.118 129.619C250.491 129.902 250.951 130.044 251.495 130.044C252.062 130.044 252.534 129.895 252.912 129.596C253.295 129.294 253.583 128.888 253.774 128.379C253.968 127.866 254.067 127.296 254.067 126.668C254.067 126.048 253.971 125.489 253.779 124.992C253.593 124.491 253.307 124.094 252.924 123.804C252.546 123.509 252.069 123.361 251.495 123.361C250.944 123.361 250.479 123.501 250.106 123.78C249.73 124.056 249.447 124.443 249.255 124.94C249.064 125.434 248.967 126.01 248.967 126.668ZM260.084 131.284C259.524 131.284 259.019 131.179 258.563 130.968C258.107 130.754 257.746 130.446 257.479 130.044C257.209 129.638 257.075 129.149 257.075 128.575C257.075 128.069 257.176 127.66 257.375 127.346C257.573 127.028 257.84 126.779 258.173 126.599C258.506 126.42 258.872 126.286 259.274 126.198C259.68 126.106 260.089 126.033 260.498 125.979C261.034 125.911 261.469 125.859 261.802 125.824C262.137 125.786 262.383 125.723 262.536 125.635C262.692 125.547 262.773 125.394 262.773 125.176V125.13C262.773 124.563 262.617 124.123 262.307 123.809C262 123.495 261.535 123.339 260.911 123.339C260.264 123.339 259.756 123.48 259.39 123.763C259.021 124.046 258.764 124.349 258.615 124.67L257.327 124.211C257.559 123.675 257.864 123.258 258.246 122.96C258.634 122.657 259.054 122.447 259.51 122.328C259.968 122.205 260.422 122.144 260.866 122.144C261.147 122.144 261.473 122.179 261.842 122.248C262.213 122.313 262.569 122.448 262.914 122.655C263.264 122.862 263.552 123.174 263.781 123.591C264.013 124.008 264.126 124.567 264.126 125.267V131.078H262.773V129.883H262.702C262.61 130.075 262.458 130.279 262.243 130.498C262.028 130.716 261.743 130.901 261.388 131.055C261.032 131.208 260.597 131.284 260.084 131.284ZM260.292 130.067C260.826 130.067 261.28 129.962 261.646 129.751C262.017 129.541 262.298 129.269 262.484 128.936C262.676 128.603 262.773 128.253 262.773 127.886V126.645C262.713 126.714 262.588 126.777 262.392 126.835C262.201 126.888 261.979 126.936 261.726 126.978C261.478 127.017 261.235 127.051 260.996 127.082C260.765 127.108 260.573 127.132 260.429 127.151C260.077 127.196 259.746 127.271 259.442 127.375C259.139 127.474 258.894 127.625 258.707 127.828C258.523 128.027 258.431 128.299 258.431 128.643C258.431 129.114 258.605 129.47 258.953 129.711C259.305 129.949 259.751 130.067 260.292 130.067ZM266.6 131.078V122.259H267.908V123.591H268C268.161 123.155 268.452 122.801 268.874 122.529C269.295 122.257 269.77 122.121 270.297 122.121C270.398 122.121 270.521 122.123 270.67 122.127C270.821 122.131 270.932 122.137 271.01 122.144V123.522C270.963 123.511 270.859 123.493 270.693 123.471C270.533 123.444 270.363 123.43 270.183 123.43C269.753 123.43 269.37 123.52 269.035 123.7C268.702 123.876 268.437 124.121 268.241 124.435C268.05 124.745 267.955 125.099 267.955 125.497V131.078H266.6ZM276.044 131.261C275.196 131.261 274.461 131.074 273.845 130.699C273.233 130.32 272.76 129.791 272.427 129.114C272.099 128.433 271.934 127.641 271.934 126.737C271.934 125.834 272.099 125.038 272.427 124.349C272.76 123.656 273.223 123.116 273.816 122.73C274.414 122.34 275.111 122.144 275.907 122.144C276.365 122.144 276.819 122.221 277.268 122.374C277.717 122.527 278.123 122.776 278.491 123.12C278.858 123.461 279.15 123.913 279.37 124.475C279.588 125.038 279.696 125.731 279.696 126.554V127.128H272.897V125.956H278.319C278.319 125.459 278.22 125.015 278.019 124.624C277.825 124.234 277.546 123.926 277.183 123.7C276.821 123.474 276.396 123.361 275.907 123.361C275.368 123.361 274.901 123.495 274.506 123.763C274.116 124.027 273.816 124.372 273.604 124.797C273.394 125.222 273.29 125.677 273.29 126.163V126.944C273.29 127.61 273.403 128.174 273.634 128.638C273.866 129.097 274.19 129.447 274.603 129.688C275.016 129.925 275.498 130.044 276.044 130.044C276.401 130.044 276.722 129.994 277.01 129.895C277.301 129.791 277.551 129.638 277.761 129.435C277.972 129.229 278.135 128.973 278.25 128.666L279.559 129.034C279.422 129.478 279.191 129.868 278.865 130.205C278.539 130.538 278.137 130.798 277.658 130.986C277.18 131.169 276.642 131.261 276.044 131.261ZM283.112 125.773V131.078H281.758V122.259H283.067V123.637H283.183C283.388 123.189 283.703 122.83 284.123 122.558C284.544 122.282 285.089 122.144 285.753 122.144C286.351 122.144 286.873 122.267 287.322 122.512C287.771 122.753 288.118 123.12 288.366 123.614C288.616 124.104 288.739 124.724 288.739 125.474V131.078H287.386V125.566C287.386 124.873 287.206 124.334 286.845 123.947C286.486 123.557 285.992 123.361 285.363 123.361C284.931 123.361 284.544 123.455 284.203 123.643C283.868 123.83 283.601 124.104 283.405 124.464C283.211 124.824 283.112 125.26 283.112 125.773ZM294.798 131.261C293.972 131.261 293.261 131.066 292.663 130.676C292.065 130.285 291.607 129.748 291.286 129.062C290.964 128.377 290.804 127.595 290.804 126.714C290.804 125.819 290.967 125.028 291.298 124.343C291.631 123.654 292.094 123.116 292.687 122.73C293.284 122.34 293.979 122.144 294.775 122.144C295.396 122.144 295.956 122.259 296.452 122.489C296.951 122.718 297.357 123.04 297.676 123.453C297.992 123.867 298.191 124.349 298.266 124.9H296.913C296.809 124.498 296.58 124.142 296.223 123.832C295.871 123.518 295.396 123.361 294.798 123.361C294.272 123.361 293.809 123.499 293.409 123.775C293.015 124.046 292.708 124.431 292.486 124.929C292.266 125.423 292.157 126.002 292.157 126.668C292.157 127.35 292.266 127.943 292.479 128.448C292.698 128.953 293.003 129.346 293.398 129.625C293.797 129.904 294.262 130.044 294.798 130.044C295.15 130.044 295.472 129.983 295.758 129.86C296.046 129.738 296.289 129.562 296.488 129.332C296.686 129.103 296.828 128.827 296.913 128.506H298.266C298.191 129.026 298.002 129.495 297.699 129.912C297.399 130.326 297.005 130.655 296.511 130.9C296.02 131.141 295.45 131.261 294.798 131.261ZM301.12 134.385C300.891 134.385 300.685 134.365 300.506 134.327C300.326 134.293 300.201 134.258 300.133 134.224L300.478 133.03C300.806 133.114 301.099 133.144 301.349 133.122C301.602 133.098 301.826 132.985 302.022 132.783C302.221 132.584 302.403 132.26 302.568 131.812L302.821 131.123L299.559 122.259H301.028L303.463 129.286H303.556L305.989 122.259H307.461L303.716 132.364C303.549 132.819 303.338 133.196 303.09 133.494C302.842 133.797 302.552 134.021 302.223 134.166C301.897 134.312 301.531 134.385 301.12 134.385Z" fill="black"/>
</g>
</g>
</g>
<defs>
<clipPath id="clip0_2001_213">
<rect width="326" height="137" fill="white"/>
</clipPath>
<clipPath id="clip1_2001_213">
<rect width="326" height="137" fill="white"/>
</clipPath>
</defs>
</svg>
